<svg width="2048" height="2048" version="1.1" viewBox="0 0 2048 2048" xmlns="http://www.w3.org/2000/svg">
 <path d="m571.54 569.09c0.11589-0.51656 1.4089-3.5589 2.8735-6.7608 1.4646-3.2019 8.9606-19.674 16.658-36.604 7.6971-16.93 16.132-35.441 18.743-41.134 2.6117-5.6934 5.686-12.436 6.8318-14.983 2.8751-6.3914 17.739-39.039 18.907-41.526 0.85004-1.8111 0.90385-2.1396 0.50742-3.0942-0.24403-0.5874-5.3169-11.899-11.273-25.137-5.9563-13.238-12.475-27.782-14.487-32.319-7.7795-17.548-16.146-36.25-24.407-54.56-12.682-28.107-14.427-32.112-14.13-32.426 0.14764-0.15679 10.535-0.23387 23.082-0.17129l22.812 0.11381 0.69825 1.4999c3.7661 8.0904 41.801 92.901 62.03 138.31 1.8687 4.1951 6.1395 13.757 9.4907 21.248 3.3514 7.4913 6.0946 13.756 6.0961 13.922 8.9e-4 0.16597-1.5924 2.7402-3.5424 5.7206-7.0054 10.708-14.261 24.619-19.577 37.536-1.6947 4.118-2.2472 5.1174-2.5055 4.5327-2.4596-5.5696-11.116-23.847-11.294-23.847-0.27102 0-0.0984-0.36062-8.1938 17.162-8.222 17.798-18.194 39.681-28.729 63.043l-4.3516 9.6504-21.5 0.025c-11.825 0.0137-22.276 0.18444-23.226 0.37936-1.5481 0.31796-1.704 0.25779-1.5149-0.58481zm125.11-6.8852c-6.4376-14.046-22.493-49.628-22.581-50.044-0.11749-0.55561 3.8236-9.8229 7.2062-16.945 1.4943-3.1463 5.1623-9.895 8.1512-14.997 10.27-17.531 19.639-29.696 35.056-45.522l6.6888-6.8659 0.221-4.3089c0.12067-2.3699 0.36596-7.5022 0.5433-11.405 1.1314-24.905 7.3334-49.31 16.833-66.239 9.4145-16.777 20.554-26.693 36.001-32.044 6.7128-2.3253 11.503-2.9721 19.183-2.59 13.247 0.6591 23.09 4.5759 33.126 13.182 18.291 15.686 29.193 41.117 33.603 78.386 0.45725 3.8641 0.71603 7.2124 0.57504 7.4405-0.1413 0.22816-2.3346 2.0638-4.8747 4.0792-2.5401 2.0154-10.208 8.2545-17.041 13.865-6.8322 5.6102-24.189 19.809-38.572 31.553-29.638 24.202-26.09 22.125-30.131 17.634-4.2002-4.6682-6.2055-11.333-6.5375-21.728l-0.17591-5.5096 5.3787-4.6271c13.354-11.488 51.703-44.812 55.938-48.608l4.6933-4.2068-0.51441-1.7274c-0.28292-0.95006-1.0929-3.404-1.8001-5.4532l-1.2855-3.7258-1.4598 0.35116c-3.7683 0.90639-17.567 5.9222-21.845 7.9407-25.244 11.91-50.515 31.712-68.738 53.86-23.959 29.121-37.832 61.501-37.8 88.227 0 6.632 0.69158 11.514 2.4545 17.523l1.5184 5.1758 0.21052-6.8103c0.2364-7.6451 1.0098-12.942 3.1007-21.238 1.1028-4.3757 3.9517-13.132 5.2013-15.987 0.39851-0.91028 0.72144-0.35812 3.8239 6.5379 1.8638 4.1427 6.0217 13.294 9.2399 20.335 3.2182 7.0418 7.6973 16.971 9.9535 22.065l4.1024 9.262-3.6407 0.13218c-2.0022 0.0727-12.367 0.19529-23.033 0.27242l-19.392 0.14022zm72.159-164.03c11.637-7.3333 27.234-13.892 39.284-16.52 6.058-1.321 14.438-2.0599 21.071-1.8577 7.2112 0.21988 6.9022 0.66383 3.6792-5.2854-3.6075-6.6593-9.9716-13.436-15.513-16.52-8.1125-4.5138-18.186-5.4763-26.513-2.5333-12.033 4.2525-21.833 17.063-26.732 34.942-1.0196 3.7218-2.814 11.729-2.814 12.557 0 0.093 0.75255-0.35063 1.6723-0.98578 0.91957-0.63515 3.5592-2.344 5.8656-3.7975zm27.499 146.84c-0.61314-0.12349-2.5482-0.48832-4.3-0.81073-13.621-2.5069-27.236-11.957-37.309-25.898-6.9909-9.6746-13.578-23.89-16.778-36.212l-0.9753-3.7544 0.77621-1.4439c1.0766-2.0028 7.258-10.787 10.332-14.683 3.7464-4.7477 11.705-13.853 12.107-13.853 0.19163 0 0.68222 1.7775 1.0901 3.95 3.6241 19.305 11.834 34.684 22.895 42.89 5.4774 4.0636 10.664 5.9299 17.762 6.391 9.7501 0.63342 18.078-2.0913 26.093-8.5368 6.1033-4.9085 9.6045-9.1385 15.008-18.132l3.5411-5.8939 3.6286 5.8742c4.26 6.8967 11.191 17.864 13.603 21.524l1.6961 2.574-1.4967 2.9655c-1.4592 2.8911-4.551 7.8314-8.1283 12.988-2.7678 3.9898-9.4324 11.398-13.24 14.717-8.6056 7.5011-16.392 11.8-25.918 14.31-3.2002 0.84307-17.684 1.5771-20.385 1.0331zm127.74-3.5273c-18.042-3.0375-31.131-20.786-35.816-48.564-1.9463-11.54-1.9398-11.283-1.9417-77.252-8.9e-4 -33.112 0.0365-72.032 0.0841-86.49l0.0857-26.288h28.336l0.0412 5.5844c0.0222 3.0714 0.13972 41.134 0.25959 84.584l0.21862 78.999 0.70396 3.9928c2.0133 11.418 5.4879 17.395 11.995 20.635 1.7513 0.87179 4.5807 0.96553 33.842 1.1212l31.931 0.1699v43.501l-6.1313 0.16316c-14.164 0.37689-61.129 0.26261-63.608-0.15479zm-238.65-131.36c-4.8935-10.457-21.599-48.293-21.586-48.889 0-0.36987 7.7094-17.599 21.818-48.81 5.418-11.986 10.905-24.183 12.194-27.105l2.3427-5.312h22.908c12.599 0 22.908 0.13595 22.908 0.30209 0 0.42846-15.55 35.39-20.221 45.463-1.4589 3.1461-6.8171 14.983-25.773 56.934-2.9788 6.5923-7.1199 15.786-9.2024 20.431-2.0825 4.6446-3.8988 8.6465-4.036 8.8932-0.13654 0.24665-0.7454-0.61144-1.3516-1.9069z" stroke-width=".83315"/>
</svg>
