<svg width="2048" height="2048" version="1.1" viewBox="0 0 2048 2048" xmlns="http://www.w3.org/2000/svg">
 <path d="m363.97 1225.5c0.36384-0.9482 4.4236-6.5323 9.0218-12.409 4.5981-5.8769 28.132-36.11 52.298-67.185s50.647-65.05 58.846-75.5 17.852-22.825 21.449-27.5c9.0268-11.731 55.694-71.654 59.359-76.219 2.6686-3.3242 2.8377-3.9271 1.593-5.6793-0.76588-1.0782-16.693-21.84-35.393-46.138-18.7-24.298-39.167-50.992-45.483-59.321-24.424-32.21-50.69-66.535-76.628-100.14-39.816-51.589-45.295-58.94-44.362-59.517 0.46563-0.2878 33.076-0.4293 72.467-0.3144l71.621 0.2089 2.1921 2.753c11.824 14.85 131.24 170.52 194.75 253.87 5.8668 7.7 19.275 25.25 29.797 39 10.522 13.75 19.134 25.249 19.139 25.554 5e-3 0.3046-4.9998 5.0296-11.122 10.5-21.994 19.654-44.773 45.187-61.463 68.896-5.321 7.5585-7.0554 9.3929-7.8662 8.3196-7.7223-10.223-34.899-43.769-35.458-43.769-0.85081 0-0.31026-0.6619-25.725 31.5-25.814 32.667-57.121 72.832-90.195 115.71l-13.662 17.713-67.5 0.046c-37.125 0.025-69.938 0.3385-72.918 0.6963-4.8607 0.5836-5.35 0.4731-4.7566-1.0734zm392.79-12.638c-20.211-25.781-70.618-91.091-70.894-91.854-0.36898-1.0198 12.004-18.03 22.624-31.103 4.6914-5.775 16.208-18.162 25.591-27.526 32.244-32.178 61.656-54.506 110.06-83.554l21-12.602 0.69376-7.9089c0.38157-4.3499 1.1492-13.77 1.7058-20.934 3.552-45.712 23.023-90.507 52.848-121.58 29.557-30.794 64.532-48.994 113.03-58.815 21.075-4.268 36.115-5.4552 60.226-4.7539 41.591 1.2097 72.493 8.3989 104 24.194 57.426 28.79 91.655 75.469 105.5 143.87 1.4355 7.0925 2.2479 13.238 1.8053 13.657-0.4425 0.4188-7.3296 3.788-15.305 7.4872s-32.05 15.151-53.5 25.448c-21.45 10.297-75.944 36.359-121.1 57.915-93.05 44.421-81.91 40.61-94.598 32.366-13.187-8.5682-19.483-20.802-20.525-39.882l-0.55235-10.113 16.887-8.493c41.926-21.086 162.33-82.252 175.62-89.219l14.735-7.7215-1.6148-3.1706c-0.8882-1.7438-3.4312-6.2479-5.6512-10.009l-4.0364-6.8386-4.5834 0.6445c-11.83 1.6637-55.152 10.87-68.583 14.575-79.256 21.861-158.6 58.207-215.81 98.859-75.219 53.45-118.77 112.88-118.68 161.94 0.0244 12.173 2.1712 21.133 7.7059 32.162l4.7673 9.5 0.661-12.5c0.74202-14.032 3.1701-23.755 9.7346-38.982 3.4625-8.0314 12.407-24.103 16.33-29.343 1.251-1.6708 2.2649-0.6573 12.005 12 5.8514 7.6037 18.905 24.4 29.009 37.325s24.166 31.15 31.25 40.5l12.879 17-11.43 0.2426c-6.2864 0.1335-38.827 0.3585-72.313 0.5l-60.883 0.2574zm226.55-301.08c36.535-13.46 85.502-25.499 123.33-30.322 19.02-2.4247 45.33-3.7809 66.152-3.4097 22.64 0.4036 21.67 1.2184 11.551-9.7012-11.326-12.223-31.306-24.662-48.704-30.321-25.47-8.285-57.094-10.052-83.24-4.6497-37.779 7.8053-68.547 31.318-83.925 64.134-3.2012 6.8312-8.8346 21.528-8.8346 23.049 0 0.1706 2.3625-0.6436 5.25-1.8094s11.175-4.3023 18.416-6.9701zm86.334 269.52c-1.925-0.2267-8-0.8963-13.5-1.4881-42.765-4.6013-85.508-21.947-117.13-47.534-21.949-17.757-42.628-43.85-52.677-66.466l-3.0618-6.891 2.4368-2.6503c3.3799-3.676 22.787-19.8 32.437-26.949 11.762-8.7142 36.747-25.427 38.013-25.427 0.6016 0 2.1415 3.2625 3.422 7.25 11.379 35.433 37.153 63.661 71.88 78.722 17.197 7.4586 33.481 10.884 55.766 11.73 30.611 1.1626 56.758-3.8385 81.92-15.669 19.162-9.0093 30.154-16.773 47.117-33.28l11.117-10.818 11.392 10.782c13.375 12.659 35.136 32.788 42.708 39.506l5.3249 4.7245-4.6992 5.4431c-4.5813 5.3064-14.288 14.374-25.519 23.84-8.6894 7.3232-29.613 20.92-41.569 27.013-27.018 13.768-51.463 21.659-81.372 26.265-10.047 1.5474-55.52 2.8948-64 1.8963zm401.05-6.4743c-56.643-5.5752-97.738-38.151-112.45-89.138-6.1107-21.181-6.0904-20.709-6.0965-141.79 0-60.775 0.1155-132.21 0.2634-158.75l0.269-48.25h88.962l0.1289 10.25c0.071 5.6375 0.4377 75.5 0.815 155.25l0.6861 145 2.2103 7.3286c6.3208 20.958 17.23 31.929 37.66 37.874 5.4984 1.6001 14.382 1.7722 106.25 2.058l100.25 0.3118v79.844l-19.25 0.2994c-44.467 0.6918-191.92 0.4821-199.7-0.2841zm-749.26-241.11c-15.363-19.193-67.812-88.64-67.771-89.734 0.0257-0.6789 24.204-32.302 68.499-89.59 17.01-22 34.238-44.388 38.283-49.75l7.3551-9.75h71.92c39.556 0 71.92 0.2495 71.92 0.5545 0 0.7864-48.821 64.958-63.485 83.446-4.5801 5.7745-21.403 27.5-80.916 104.5-9.3521 12.1-22.353 28.975-28.892 37.5s-12.24 15.87-12.671 16.323c-0.43074 0.4528-2.3404-1.1222-4.2436-3.5z"/>
</svg>
